<svg width="56" height="56" viewBox="0 0 56 56" fill="none" xmlns="http://www.w3.org/2000/svg">
    <rect width="56" height="56" rx="28" fill="#E6E6E6" />
    <path d="M35.4531 28.9844L37.5625 30.625C37.75 30.7656 37.7969 31.0469 37.6562 31.2812L35.6406 34.75C35.5469 34.8906 35.4062 34.9844 35.2188 34.9844C35.1719 34.9844 35.125 34.9844 35.0312 34.9375L32.5469 33.9531C32.0312 34.3281 31.4688 34.7031 30.8594 34.9375L30.4844 37.5625C30.4375 37.7969 30.25 37.9844 30.0156 37.9844H25.9844C25.75 37.9844 25.5625 37.7969 25.5156 37.5625L25.1406 34.9375C24.5312 34.7031 23.9688 34.3281 23.4531 33.9531L20.9688 34.9375C20.9219 34.9844 20.8281 34.9844 20.7812 34.9844C20.5938 34.9844 20.4531 34.8906 20.3594 34.75L18.3438 31.2812C18.2031 31.0469 18.25 30.7656 18.4375 30.625L20.5469 28.9844C20.5469 28.6562 20.5 28.3281 20.5 28C20.5 27.6719 20.5469 27.3438 20.5469 27.0156L18.4375 25.375C18.25 25.2344 18.2031 24.9531 18.3438 24.7188L20.3594 21.25C20.4531 21.1094 20.5938 21.0156 20.7812 21.0156C20.8281 21.0156 20.875 21.0156 20.9688 21.0625L23.4531 22.0469C23.9688 21.6719 24.5312 21.2969 25.1406 21.0625L25.5156 18.4375C25.5625 18.2031 25.75 18.0156 25.9844 18.0156H30.0156C30.25 18.0156 30.4375 18.2031 30.4844 18.4375L30.8594 21.0625C31.4688 21.2969 32.0312 21.6719 32.5469 22.0469L35.0312 21.0625C35.0781 21.0156 35.1719 21.0156 35.2188 21.0156C35.4062 21.0156 35.5469 21.1094 35.6406 21.25L37.6562 24.7188C37.7969 24.9531 37.75 25.2344 37.5625 25.375L35.4531 27.0156C35.4531 27.3438 35.5 27.6719 35.5 28C35.5 28.3281 35.4531 28.6562 35.4531 28.9844ZM33.4375 27.25L33.2969 26.125L34.1875 25.4219L35.2656 24.5781L34.5625 23.3594L33.2969 23.875L32.2188 24.2969L31.3281 23.6406C30.9531 23.3125 30.5312 23.0781 30.1094 22.8906L29.0312 22.4688L28.8906 21.3438L28.7031 19.9844H27.2969L27.1094 21.3438L26.9219 22.4688L25.8906 22.8906C25.4688 23.0781 25.0469 23.3125 24.625 23.6406L23.7344 24.2969L22.7031 23.9219L21.4375 23.4062L20.7344 24.5781L21.8125 25.4219L22.7031 26.125L22.5625 27.25C22.5156 27.5781 22.5156 27.8125 22.5156 28C22.5156 28.1875 22.5156 28.4219 22.5625 28.75L22.7031 29.875L21.8125 30.5781L20.7344 31.4219L21.4375 32.6406L22.7031 32.125L23.7344 31.7031L24.6719 32.3594C25.0469 32.6875 25.4688 32.9219 25.8906 33.1094L26.9688 33.5312L27.1094 34.6562L27.2969 36.0156H28.7031L28.8906 34.6562L29.0781 33.5312L30.1094 33.1094C30.5312 32.9219 30.9531 32.6875 31.375 32.3594L32.2656 31.7031L33.2969 32.0781L34.5625 32.5938L35.2656 31.4219L34.1875 30.5781L33.2969 29.875L33.4375 28.75C33.4844 28.4219 33.4844 28.1875 33.4844 28C33.4844 27.8125 33.4844 27.5781 33.4375 27.25ZM28 24.0156C30.2031 24.0156 31.9844 25.7969 31.9844 28C31.9844 30.2031 30.2031 31.9844 28 31.9844C25.7969 31.9844 24.0156 30.2031 24.0156 28C24.0156 25.7969 25.7969 24.0156 28 24.0156ZM28 30.0156C29.0781 30.0156 30.0156 29.0781 30.0156 28C30.0156 26.9219 29.0781 25.9844 28 25.9844C26.9219 25.9844 25.9844 26.9219 25.9844 28C25.9844 29.0781 26.9219 30.0156 28 30.0156Z" fill="black" />
</svg>