<svg width="161" height="24" viewBox="0 0 161 24" fill="none" xmlns="http://www.w3.org/2000/svg">
<g id="Layer_1-2">
<g id="Vector">
<path d="M26.1413 23.9945C24.84 23.9945 23.6759 23.7419 22.6437 23.2313C21.6114 22.7207 20.8043 21.919 20.2223 20.8209C19.6403 19.7282 19.3547 18.3445 19.3547 16.6754V7.73645H24.9663V15.7639C24.9663 17.0048 25.1969 17.8888 25.6581 18.4214C26.1193 18.954 26.7782 19.2176 27.6238 19.2176C28.1783 19.2176 28.678 19.0913 29.1282 18.8332C29.5785 18.5752 29.9464 18.1688 30.2209 17.6088C30.4954 17.0487 30.6382 16.324 30.6382 15.4345V7.73096H36.2497V23.731H30.9072V19.2121L31.9395 20.4804C31.3849 21.661 30.5888 22.545 29.551 23.127C28.5133 23.709 27.3767 23.9945 26.1578 23.9945H26.1413Z" fill="white"/>
<path d="M26.1413 23.9945C24.84 23.9945 23.6759 23.7419 22.6437 23.2313C21.6114 22.7207 20.8043 21.919 20.2223 20.8209C19.6403 19.7282 19.3547 18.3445 19.3547 16.6754V7.73645H24.9663V15.7639C24.9663 17.0048 25.1969 17.8888 25.6581 18.4214C26.1193 18.954 26.7782 19.2176 27.6238 19.2176C28.1783 19.2176 28.678 19.0913 29.1282 18.8332C29.5785 18.5752 29.9464 18.1688 30.2209 17.6088C30.4954 17.0487 30.6382 16.324 30.6382 15.4345V7.73096H36.2497V23.731H30.9072V19.2121L31.9395 20.4804C31.3849 21.661 30.5888 22.545 29.551 23.127C28.5133 23.709 27.3767 23.9945 26.1578 23.9945H26.1413Z" fill="#2200E8"/>
</g>
<g id="Vector_2">
<path d="M60.6782 7.46741C61.9191 7.46741 63.0227 7.71998 64.0001 8.21964C64.9719 8.71929 65.7406 9.49349 66.3062 10.5367C66.8662 11.58 67.1462 12.9252 67.1462 14.5834V23.7365H61.5347V15.5004C61.5347 14.3583 61.3151 13.5292 60.8813 13.0076C60.4475 12.4859 59.8546 12.2224 59.1133 12.2224C58.5862 12.2224 58.0975 12.3487 57.6692 12.6067C57.2355 12.8593 56.9005 13.2546 56.6644 13.7708C56.4283 14.2924 56.313 14.9677 56.313 15.7914V23.731H50.7015V15.4949C50.7015 14.3528 50.4874 13.5237 50.0701 13.0021C49.6473 12.4804 49.0488 12.2169 48.2856 12.2169C47.731 12.2169 47.2478 12.3432 46.825 12.6012C46.4022 12.8538 46.0673 13.2491 45.8202 13.7653C45.5731 14.2869 45.4524 14.9623 45.4524 15.7859V23.7255H39.8408V7.73096H45.1833V12.1894L44.1236 10.9211C44.7111 9.77901 45.5237 8.91696 46.545 8.34043C47.5718 7.75842 48.7084 7.4729 49.9657 7.4729C51.3988 7.4729 52.6672 7.84078 53.7598 8.57654C54.8525 9.31229 55.5882 10.4599 55.9616 12.0137L54.1277 11.6294C54.6988 10.3281 55.5608 9.31229 56.7084 8.57654C57.8614 7.84078 59.1847 7.4729 60.6782 7.4729V7.46741Z" fill="white"/>
<path d="M60.6782 7.46741C61.9191 7.46741 63.0227 7.71998 64.0001 8.21964C64.9719 8.71929 65.7406 9.49349 66.3062 10.5367C66.8662 11.58 67.1462 12.9252 67.1462 14.5834V23.7365H61.5347V15.5004C61.5347 14.3583 61.3151 13.5292 60.8813 13.0076C60.4475 12.4859 59.8546 12.2224 59.1133 12.2224C58.5862 12.2224 58.0975 12.3487 57.6692 12.6067C57.2355 12.8593 56.9005 13.2546 56.6644 13.7708C56.4283 14.2924 56.313 14.9677 56.313 15.7914V23.731H50.7015V15.4949C50.7015 14.3528 50.4874 13.5237 50.0701 13.0021C49.6473 12.4804 49.0488 12.2169 48.2856 12.2169C47.731 12.2169 47.2478 12.3432 46.825 12.6012C46.4022 12.8538 46.0673 13.2491 45.8202 13.7653C45.5731 14.2869 45.4524 14.9623 45.4524 15.7859V23.7255H39.8408V7.73096H45.1833V12.1894L44.1236 10.9211C44.7111 9.77901 45.5237 8.91696 46.545 8.34043C47.5718 7.75842 48.7084 7.4729 49.9657 7.4729C51.3988 7.4729 52.6672 7.84078 53.7598 8.57654C54.8525 9.31229 55.5882 10.4599 55.9616 12.0137L54.1277 11.6294C54.6988 10.3281 55.5608 9.31229 56.7084 8.57654C57.8614 7.84078 59.1847 7.4729 60.6782 7.4729V7.46741Z" fill="#2200E8"/>
</g>
<g id="Vector_3">
<path d="M75.7337 23.9945C74.4543 23.9945 73.3727 23.7749 72.4832 23.3411C71.5937 22.9073 70.9238 22.3144 70.4626 21.5731C70.0014 20.8264 69.7708 19.9863 69.7708 19.0638C69.7708 18.081 70.0233 17.2244 70.523 16.5106C71.0226 15.7914 71.7968 15.2423 72.8401 14.8579C73.8833 14.4736 75.2285 14.2814 76.8813 14.2814H80.6589V17.2025H77.6445C76.7385 17.2025 76.1071 17.3507 75.7392 17.6472C75.3768 17.9382 75.1901 18.3391 75.1901 18.8277C75.1901 19.3164 75.3768 19.7172 75.7502 20.0082C76.1235 20.3047 76.6397 20.453 77.2821 20.453C77.8915 20.453 78.4461 20.2993 78.9513 19.9973C79.4509 19.6898 79.8188 19.2286 80.0549 18.5971L80.8236 20.6671C80.5271 21.7653 79.9561 22.5999 79.094 23.1599C78.2375 23.72 77.1119 24 75.7117 24H75.7227L75.7337 23.9945ZM80.4557 23.731V20.7495L80.0714 20.0137V14.523C80.0714 13.6335 79.8023 12.9526 79.2587 12.4695C78.7152 11.9863 77.8586 11.7447 76.6781 11.7447C75.9149 11.7447 75.1352 11.8655 74.3445 12.1126C73.5539 12.3596 72.8895 12.7001 72.3404 13.1338L70.4516 9.32327C71.3576 8.73576 72.4447 8.27454 73.7131 7.95059C74.9815 7.62664 76.2498 7.46191 77.5072 7.46191C80.1043 7.46191 82.1139 8.05491 83.547 9.2464C84.9746 10.4379 85.6884 12.2993 85.6884 14.8415V23.7255H80.4612L80.4557 23.731Z" fill="white"/>
<path d="M75.7337 23.9945C74.4543 23.9945 73.3727 23.7749 72.4832 23.3411C71.5937 22.9073 70.9238 22.3144 70.4626 21.5731C70.0014 20.8264 69.7708 19.9863 69.7708 19.0638C69.7708 18.081 70.0233 17.2244 70.523 16.5106C71.0226 15.7914 71.7968 15.2423 72.8401 14.8579C73.8833 14.4736 75.2285 14.2814 76.8813 14.2814H80.6589V17.2025H77.6445C76.7385 17.2025 76.1071 17.3507 75.7392 17.6472C75.3768 17.9382 75.1901 18.3391 75.1901 18.8277C75.1901 19.3164 75.3768 19.7172 75.7502 20.0082C76.1235 20.3047 76.6397 20.453 77.2821 20.453C77.8915 20.453 78.4461 20.2993 78.9513 19.9973C79.4509 19.6898 79.8188 19.2286 80.0549 18.5971L80.8236 20.6671C80.5271 21.7653 79.9561 22.5999 79.094 23.1599C78.2375 23.72 77.1119 24 75.7117 24H75.7227L75.7337 23.9945ZM80.4557 23.731V20.7495L80.0714 20.0137V14.523C80.0714 13.6335 79.8023 12.9526 79.2587 12.4695C78.7152 11.9863 77.8586 11.7447 76.6781 11.7447C75.9149 11.7447 75.1352 11.8655 74.3445 12.1126C73.5539 12.3596 72.8895 12.7001 72.3404 13.1338L70.4516 9.32327C71.3576 8.73576 72.4447 8.27454 73.7131 7.95059C74.9815 7.62664 76.2498 7.46191 77.5072 7.46191C80.1043 7.46191 82.1139 8.05491 83.547 9.2464C84.9746 10.4379 85.6884 12.2993 85.6884 14.8415V23.7255H80.4612L80.4557 23.731Z" fill="#2200E8"/>
</g>
<g id="Vector_4">
<path d="M99.6458 7.4674C100.887 7.4674 102.007 7.71998 103.012 8.21964C104.011 8.71929 104.807 9.49349 105.389 10.5367C105.971 11.58 106.262 12.9252 106.262 14.5834V23.7365H100.651V15.5003C100.651 14.3583 100.42 13.5292 99.9588 13.0076C99.4975 12.4859 98.8496 12.2224 98.0205 12.2224C97.433 12.2224 96.8894 12.3542 96.3953 12.6177C95.9066 12.8813 95.5222 13.2931 95.2422 13.8421C94.9677 14.3967 94.8249 15.1105 94.8249 15.9945V23.731H89.2134V7.72547H94.5559V12.2718L93.5236 10.943C94.1331 9.779 94.9677 8.91147 96.0329 8.32945C97.0926 7.74743 98.2951 7.46191 99.6348 7.46191L99.6458 7.4674Z" fill="white"/>
<path d="M99.6458 7.4674C100.887 7.4674 102.007 7.71998 103.012 8.21964C104.011 8.71929 104.807 9.49349 105.389 10.5367C105.971 11.58 106.262 12.9252 106.262 14.5834V23.7365H100.651V15.5003C100.651 14.3583 100.42 13.5292 99.9588 13.0076C99.4975 12.4859 98.8496 12.2224 98.0205 12.2224C97.433 12.2224 96.8894 12.3542 96.3953 12.6177C95.9066 12.8813 95.5222 13.2931 95.2422 13.8421C94.9677 14.3967 94.8249 15.1105 94.8249 15.9945V23.731H89.2134V7.72547H94.5559V12.2718L93.5236 10.943C94.1331 9.779 94.9677 8.91147 96.0329 8.32945C97.0926 7.74743 98.2951 7.46191 99.6348 7.46191L99.6458 7.4674Z" fill="#2200E8"/>
</g>
<g id="Vector_5">
<path d="M112.576 5.95745C111.55 5.95745 110.726 5.67193 110.1 5.10089C109.474 4.52985 109.156 3.82155 109.156 2.97598C109.156 2.1304 109.474 1.4221 110.1 0.851061C110.726 0.280025 111.555 -0.00549316 112.576 -0.00549316C113.598 -0.00549316 114.427 0.263553 115.053 0.807136C115.679 1.35072 115.997 2.04255 115.997 2.88812C115.997 3.7337 115.684 4.50789 115.069 5.08991C114.449 5.67193 113.62 5.95745 112.576 5.95745ZM109.771 23.731V7.73095H115.382V23.731H109.771Z" fill="white"/>
<path d="M112.576 5.95745C111.55 5.95745 110.726 5.67193 110.1 5.10089C109.474 4.52985 109.156 3.82155 109.156 2.97598C109.156 2.1304 109.474 1.4221 110.1 0.851061C110.726 0.280025 111.555 -0.00549316 112.576 -0.00549316C113.598 -0.00549316 114.427 0.263553 115.053 0.807136C115.679 1.35072 115.997 2.04255 115.997 2.88812C115.997 3.7337 115.684 4.50789 115.069 5.08991C114.449 5.67193 113.62 5.95745 112.576 5.95745ZM109.771 23.731V7.73095H115.382V23.731H109.771Z" fill="#2200E8"/>
</g>
<g id="Vector_6">
<path d="M118.183 23.731V20.4255L127.16 10.0975L128.104 11.8929H118.391V7.73096H132.651V11.0089L123.646 21.3645L122.701 19.536H132.947V23.7255H118.188L118.183 23.731Z" fill="white"/>
<path d="M118.183 23.731V20.4255L127.16 10.0975L128.104 11.8929H118.391V7.73096H132.651V11.0089L123.646 21.3645L122.701 19.536H132.947V23.7255H118.188L118.183 23.731Z" fill="#2200E8"/>
</g>
<g id="Vector_7">
<path d="M143.632 23.9945C141.743 23.9945 140.096 23.6376 138.691 22.9183C137.285 22.1991 136.192 21.2162 135.413 19.9698C134.633 18.7234 134.249 17.2958 134.249 15.7035C134.249 14.1112 134.627 12.6836 135.385 11.4372C136.143 10.1853 137.186 9.21346 138.531 8.51614C139.866 7.81881 141.376 7.46741 143.05 7.46741C144.621 7.46741 146.065 7.78587 147.36 8.42829C148.662 9.0707 149.694 10.0041 150.457 11.245C151.22 12.4859 151.61 13.9904 151.61 15.7639C151.61 15.9616 151.599 16.1867 151.583 16.4448C151.566 16.6973 151.544 16.9334 151.528 17.1531H138.866V14.2045H148.552L146.427 15.0281C146.443 14.3034 146.312 13.6664 146.032 13.1393C145.746 12.6067 145.351 12.1949 144.851 11.8984C144.351 11.6019 143.764 11.4537 143.094 11.4537C142.424 11.4537 141.837 11.6019 141.337 11.8984C140.837 12.1949 140.442 12.6122 140.173 13.1558C139.893 13.6994 139.756 14.3308 139.756 15.0611V15.9176C139.756 16.7083 139.915 17.3837 140.244 17.9547C140.568 18.5257 141.035 18.965 141.645 19.267C142.254 19.5745 142.979 19.7227 143.83 19.7227C144.621 19.7227 145.29 19.6074 145.85 19.3823C146.411 19.1572 146.965 18.8058 147.52 18.3336L150.468 21.4029C149.705 22.2485 148.761 22.8964 147.635 23.3411C146.509 23.7859 145.186 24.0055 143.649 24.0055H143.638L143.632 23.9945Z" fill="white"/>
<path d="M143.632 23.9945C141.743 23.9945 140.096 23.6376 138.691 22.9183C137.285 22.1991 136.192 21.2162 135.413 19.9698C134.633 18.7234 134.249 17.2958 134.249 15.7035C134.249 14.1112 134.627 12.6836 135.385 11.4372C136.143 10.1853 137.186 9.21346 138.531 8.51614C139.866 7.81881 141.376 7.46741 143.05 7.46741C144.621 7.46741 146.065 7.78587 147.36 8.42829C148.662 9.0707 149.694 10.0041 150.457 11.245C151.22 12.4859 151.61 13.9904 151.61 15.7639C151.61 15.9616 151.599 16.1867 151.583 16.4448C151.566 16.6973 151.544 16.9334 151.528 17.1531H138.866V14.2045H148.552L146.427 15.0281C146.443 14.3034 146.312 13.6664 146.032 13.1393C145.746 12.6067 145.351 12.1949 144.851 11.8984C144.351 11.6019 143.764 11.4537 143.094 11.4537C142.424 11.4537 141.837 11.6019 141.337 11.8984C140.837 12.1949 140.442 12.6122 140.173 13.1558C139.893 13.6994 139.756 14.3308 139.756 15.0611V15.9176C139.756 16.7083 139.915 17.3837 140.244 17.9547C140.568 18.5257 141.035 18.965 141.645 19.267C142.254 19.5745 142.979 19.7227 143.83 19.7227C144.621 19.7227 145.29 19.6074 145.85 19.3823C146.411 19.1572 146.965 18.8058 147.52 18.3336L150.468 21.4029C149.705 22.2485 148.761 22.8964 147.635 23.3411C146.509 23.7859 145.186 24.0055 143.649 24.0055H143.638L143.632 23.9945Z" fill="#2200E8"/>
</g>
<g id="Vector_8">
<path d="M157.002 5.95745C155.975 5.95745 155.152 5.67193 154.526 5.10089C153.9 4.52985 153.581 3.82155 153.581 2.97598C153.581 2.1304 153.9 1.4221 154.526 0.851061C155.152 0.280025 155.981 -0.00549316 157.002 -0.00549316C158.023 -0.00549316 158.852 0.263553 159.478 0.807136C160.104 1.35072 160.423 2.04255 160.423 2.88812C160.423 3.7337 160.11 4.50789 159.495 5.08991C158.874 5.67193 158.045 5.95745 157.002 5.95745ZM154.196 23.731V7.73095H159.808V23.731H154.196Z" fill="white"/>
<path d="M157.002 5.95745C155.975 5.95745 155.152 5.67193 154.526 5.10089C153.9 4.52985 153.581 3.82155 153.581 2.97598C153.581 2.1304 153.9 1.4221 154.526 0.851061C155.152 0.280025 155.981 -0.00549316 157.002 -0.00549316C158.023 -0.00549316 158.852 0.263553 159.478 0.807136C160.104 1.35072 160.423 2.04255 160.423 2.88812C160.423 3.7337 160.11 4.50789 159.495 5.08991C158.874 5.67193 158.045 5.95745 157.002 5.95745ZM154.196 23.731V7.73095H159.808V23.731H154.196Z" fill="#FF5B29"/>
</g>
<g id="Vector_9">
<path d="M9.68016 8.19226C10.8332 8.19226 11.8765 8.42287 12.8044 8.88959C13.7323 9.3563 14.4736 10.0756 15.0117 11.042C15.5498 12.0083 15.8188 13.2602 15.8188 14.8031V23.3028H10.6136V15.6542C10.6136 14.5945 10.394 13.8203 9.96568 13.3371C9.53741 12.8484 8.93892 12.6123 8.17021 12.6123C7.62114 12.6123 7.11599 12.7331 6.66575 12.9802C6.21002 13.2273 5.85312 13.6061 5.59506 14.1168C5.34248 14.6274 5.21071 15.2973 5.21071 16.1209V23.3028H0V2.9541H5.20522V12.6617L3.99725 11.4318C4.5628 10.3556 5.34248 9.54298 6.33082 9.00489C7.31915 8.4668 8.43377 8.19775 9.67467 8.19775L9.68016 8.19226Z" fill="white"/>
<path d="M9.68016 8.19226C10.8332 8.19226 11.8765 8.42287 12.8044 8.88959C13.7323 9.3563 14.4736 10.0756 15.0117 11.042C15.5498 12.0083 15.8188 13.2602 15.8188 14.8031V23.3028H10.6136V15.6542C10.6136 14.5945 10.394 13.8203 9.96568 13.3371C9.53741 12.8484 8.93892 12.6123 8.17021 12.6123C7.62114 12.6123 7.11599 12.7331 6.66575 12.9802C6.21002 13.2273 5.85312 13.6061 5.59506 14.1168C5.34248 14.6274 5.21071 15.2973 5.21071 16.1209V23.3028H0V2.9541H5.20522V12.6617L3.99725 11.4318C4.5628 10.3556 5.34248 9.54298 6.33082 9.00489C7.31915 8.4668 8.43377 8.19775 9.67467 8.19775L9.68016 8.19226Z" fill="#2200E8"/>
</g>
</g>
</svg>
