<svg width="14" height="19" viewBox="0 0 14 19" fill="none" xmlns="http://www.w3.org/2000/svg">
<path d="M7 12.0156C5.35938 12.0156 4 10.6562 4 9.01562V3.01562C4 1.32812 5.35938 0.015625 7 0.015625C8.64062 0.015625 10 1.32812 10 3.01562V9.01562C10 10.6562 8.64062 12.0156 7 12.0156ZM6.01562 3.01562V9.01562C6.01562 9.53125 6.4375 10 7 10C7.5625 10 7.98438 9.53125 7.98438 9.01562V3.01562C7.98438 2.45312 7.5625 1.98438 7 1.98438C6.4375 1.98438 6.01562 2.45312 6.01562 3.01562ZM12.0156 9.01562H13.9844C13.9844 12.5312 11.4062 15.4375 7.98438 15.9062V19H6.01562V15.9062C2.59375 15.4375 0.015625 12.5312 0.015625 9.01562H1.98438C1.98438 11.7812 4.23438 13.9844 7 13.9844C9.76562 13.9844 12.0156 11.7812 12.0156 9.01562Z" fill="white"/>
<path d="M7 12.0156C5.35938 12.0156 4 10.6562 4 9.01562V3.01562C4 1.32812 5.35938 0.015625 7 0.015625C8.64062 0.015625 10 1.32812 10 3.01562V9.01562C10 10.6562 8.64062 12.0156 7 12.0156ZM6.01562 3.01562V9.01562C6.01562 9.53125 6.4375 10 7 10C7.5625 10 7.98438 9.53125 7.98438 9.01562V3.01562C7.98438 2.45312 7.5625 1.98438 7 1.98438C6.4375 1.98438 6.01562 2.45312 6.01562 3.01562ZM12.0156 9.01562H13.9844C13.9844 12.5312 11.4062 15.4375 7.98438 15.9062V19H6.01562V15.9062C2.59375 15.4375 0.015625 12.5312 0.015625 9.01562H1.98438C1.98438 11.7812 4.23438 13.9844 7 13.9844C9.76562 13.9844 12.0156 11.7812 12.0156 9.01562Z" fill="#2200E8" fill-opacity="0.1"/>
</svg>
